<svg height="512pt" viewBox="0 0 512 512.001" width="512pt" xmlns="http://www.w3.org/2000/svg"><path d="m408.976562 285.015625c34.734376 0 62.996094 28.257813 62.996094 62.996094h39.996094c0-38.632813-21.382812-72.359375-52.929688-89.980469 6.269532-9.476562 9.933594-20.824219 9.933594-33.015625 0-33.082031-26.914062-59.996094-59.996094-59.996094-33.082031 0-59.996093 26.914063-59.996093 59.996094 0 12.199219 3.667969 23.550781 9.945312 33.035156-4.933593 2.742188-9.640625 5.886719-14.078125 9.410157-9.796875-10.796876-21.527344-19.804688-34.636718-26.472657 8.636718-11.402343 13.769531-25.59375 13.769531-40.96875 0-37.492187-30.503907-67.996093-67.996094-67.996093s-67.996094 30.503906-67.996094 67.996093c0 15.375 5.136719 29.566407 13.769531 40.96875-13.109374 6.667969-24.839843 15.675781-34.636718 26.472657-4.433594-3.523438-9.144532-6.667969-14.078125-9.414063 6.277343-9.480469 9.945312-20.832031 9.945312-33.03125 0-33.082031-26.914062-59.996094-59.996093-59.996094-33.082032 0-59.996094 26.914063-59.996094 59.996094 0 12.191406 3.664062 23.535156 9.933594 33.015625-31.546876 17.621094-52.929688 51.347656-52.929688 89.980469h40c0-34.738281 28.257812-62.996094 62.996094-62.996094 15.769531 0 30.898437 5.984375 42.402344 16.425781-6.054688 14.328125-9.40625 30.0625-9.40625 46.570313h39.996093c0-44.109375 35.886719-79.996094 79.996094-79.996094s79.996094 35.886719 79.996094 79.996094h39.996093c0-16.507813-3.351562-32.242188-9.40625-46.570313 11.503907-10.441406 26.632813-16.425781 42.40625-16.425781zm-20-60c0-11.027344 8.972657-19.996094 20-19.996094 11.027344 0 19.996094 8.96875 19.996094 19.996094s-8.96875 20-19.996094 20c-11.027343 0-20-8.96875-20-20zm-305.980468 0c0-11.027344 8.972656-19.996094 20-19.996094s19.996094 8.96875 19.996094 19.996094-8.96875 20-19.996094 20-20-8.96875-20-20zm144.992187-24.996094c0-15.4375 12.558594-28 27.996094-28s28 12.5625 28 28-12.5625 27.996094-28 27.996094-27.996094-12.558594-27.996094-27.996094zm283.980469-72.996093h-126.992188v-126.992188h40v59.710938l58.742188-58.742188 28.28125 28.285156-57.742188 57.742188h57.710938zm-384.085938-2h-127.882812v-39.996094h57.601562l-56.742187-56.742188 28.28125-28.285156 58.742187 58.742188v-58.710938h40zm326.375 299.09375 57.742188 57.742187-28.28125 28.285156-58.742188-58.742187v60.597656h-40v-127.878906h126.992188v39.996094zm-454.257812-37.996094h127.882812v125.878906h-40v-59.597656l-58.742187 58.742187-28.28125-28.285156 56.742187-56.742187h-57.601562zm0 0"/></svg>